HIERARCHY
ROOT Hips
{
    OFFSET 0.000000 0.000000 0.000000
    CHANNELS 6 Xposition Yposition Zposition Zrotation Xrotation Yrotation
    JOINT Spine
    {
        OFFSET -0.000000 7.246840 0.000000
        CHANNELS 3 Zrotation Xrotation Yrotation
        JOINT Spine1
        {
            OFFSET -0.000000 20.289354 0.000000
            CHANNELS 3 Zrotation Xrotation Yrotation
            JOINT Neck
            {
                OFFSET -0.000000 20.206032 1.836912
                CHANNELS 3 Zrotation Xrotation Yrotation
                JOINT Head
                {
                    OFFSET -0.000000 12.372654 -1.767522
                    CHANNELS 3 Zrotation Xrotation Yrotation
                    End Site
                    {
                        OFFSET -0.000000 22.094025 0.000000
                    }
                }
            }
            JOINT LeftShoulder
            {
                OFFSET 3.465871 17.201674 -0.568930
                CHANNELS 3 Zrotation Xrotation Yrotation
                JOINT LeftArm
                {
                    OFFSET 14.070313 0.000000 0.000000
                    CHANNELS 3 Zrotation Xrotation Yrotation
                    JOINT LeftForeArm
                    {
                        OFFSET 26.549477 0.000000 0.000000
                        CHANNELS 3 Zrotation Xrotation Yrotation
                        JOINT LeftHand
                        {
                            OFFSET 18.880413 0.000000 0.000000
                            CHANNELS 3 Zrotation Xrotation Yrotation
                            End Site
                            {
                                OFFSET 13.256415 0.000000 0.000000
                            }
                        }
                    }
                }
            }
            JOINT RightShoulder
            {
                OFFSET -3.526370 17.201674 -0.568930
                CHANNELS 3 Zrotation Xrotation Yrotation
                JOINT RightArm
                {
                    OFFSET -14.070313 0.000000 0.000000
                    CHANNELS 3 Zrotation Xrotation Yrotation
                    JOINT RightForeArm
                    {
                        OFFSET -26.549477 0.000000 0.000000
                        CHANNELS 3 Zrotation Xrotation Yrotation
                        JOINT RightHand
                        {
                            OFFSET -18.880413 0.000000 0.000000
                            CHANNELS 3 Zrotation Xrotation Yrotation
                            End Site
                            {
                                OFFSET -13.256415 0.000000 0.000000
                            }
                        }
                    }
                }
            }
        }
    }
    JOINT LeftUpLeg
    {
        OFFSET 8.837609 0.000000 0.000000
        CHANNELS 3 Zrotation Xrotation Yrotation
        JOINT LeftLeg
        {
            OFFSET -0.000000 -41.345005 0.000000
            CHANNELS 3 Zrotation Xrotation Yrotation
            JOINT LeftFoot
            {
                OFFSET -0.000000 -35.500874 0.000000
                CHANNELS 3 Zrotation Xrotation Yrotation
                JOINT LeftToeBase
                {
                    OFFSET -0.000000 -5.744446 13.256415
                    CHANNELS 3 Zrotation Xrotation Yrotation
                    End Site
                    {
                        OFFSET -0.000000 0.000000 3.535044
                    }
                }
            }
        }
    }
    JOINT RightUpLeg
    {
        OFFSET -8.837609 0.000000 0.000000
        CHANNELS 3 Zrotation Xrotation Yrotation
        JOINT RightLeg
        {
            OFFSET -0.000000 -41.345005 0.000000
            CHANNELS 3 Zrotation Xrotation Yrotation
            JOINT RightFoot
            {
                OFFSET -0.000000 -35.500874 0.000000
                CHANNELS 3 Zrotation Xrotation Yrotation
                JOINT RightToeBase
                {
                    OFFSET -0.000000 -5.744446 13.256415
                    CHANNELS 3 Zrotation Xrotation Yrotation
                    End Site
                    {
                        OFFSET -0.000000 0.000000 3.535044
                    }
                }
            }
        }
    }
}
MOTION
Frames:    10
Frame Time:    0.010000
5.437474    91.982796    -2.031887    5.044914    -0.308164    -5.958631    -3.343377    -10.694392    0.875014    -4.729065    11.192029    1.651677    2.128911    16.199385    -1.297681    4.371806    -19.519175    -0.006649    11.138984    -8.342671    5.611660    -48.906460    49.468582    -46.993004    6.810748    -21.656282    -117.514023    1.335516    -11.169212    -27.658192    -1.352920    -9.905253    21.647076    -124.009438    -40.760769    151.921066    -61.344379    33.480602    -117.005211    -90.951431    -70.658958    -68.954865    -1.832555    -4.031053    -0.884792    0.795132    20.051859    -3.794552    -2.580883    14.322250    -8.628088    -0.213575    -8.949357    0.317008    -9.523541    -9.117337    -3.044930    -1.719745    20.028191    3.689289    12.929175    13.349766    -2.405589    -1.036819    -6.925708    2.015167    
5.418577    90.843575    -2.016694    4.995922    -0.249870    -5.966731    -3.433837    -10.947730    0.806918    -4.537029    11.515283    1.593756    2.156325    16.272598    -1.294761    4.158354    -19.535765    -0.067307    10.941327    -7.923765    5.567159    -48.237244    50.015579    -47.473003    6.898123    -22.112907    -117.593506    2.936737    -11.884760    -27.947084    -1.524564    -9.637773    21.510424    -124.875755    -41.673401    151.208420    -57.425930    31.968420    -119.210953    -81.921028    -66.973267    -63.329620    -1.867362    -4.510779    -1.323568    1.128948    21.217918    -4.523651    -2.086496    13.824574    -8.320884    -0.064195    -8.690811    0.095110    -9.330197    -9.596425    -2.903040    -2.164417    21.005739    4.502058    13.275247    13.735497    -2.498202    -1.017361    -7.006645    1.979365    
5.394159    89.589104    -2.005350    4.926974    -0.290460    -5.928131    -4.035301    -10.949675    0.742631    -3.506483    11.630501    1.486748    2.035313    16.344341    -1.373306    3.823319    -19.503399    -0.251776    10.552334    -7.618722    5.373877    -49.241543    49.993210    -46.747925    7.413558    -22.468786    -117.245071    2.477155    -11.374738    -27.419979    -1.828598    -9.504098    21.323959    -124.798058    -41.695564    151.696503    -54.999023    31.619894    -120.430649    -75.035629    -65.193565    -60.004341    -1.880916    -4.950585    -1.840461    1.465145    22.523319    -5.169024    -2.067791    13.836603    -8.150966    -0.316415    -8.249742    0.467320    -9.153927    -10.011062    -2.789148    -2.513434    22.030798    4.634685    13.890079    14.543298    -1.453063    -1.362444    -10.668870    2.781517    
5.382605    88.216705    -1.986044    4.821480    -0.445566    -5.832981    -4.156865    -10.859027    0.679001    -3.194781    11.820859    1.405127    1.959194    16.411278    -1.430961    3.722001    -19.618694    -0.338079    10.449716    -7.433487    5.284434    -50.495552    49.628719    -45.734116    7.405810    -22.864305    -117.177612    -1.314136    -10.915687    -27.466637    -1.912698    -9.633383    21.253839    -124.271225    -41.449173    152.468369    -57.588497    32.933872    -118.972290    -82.621460    -65.344406    -63.707157    -1.877179    -5.290845    -2.424695    1.743055    23.965969    -5.737568    -1.448698    13.425322    -8.240770    -0.505015    -17.379271    0.801230    -8.996991    -10.339803    -2.723350    -2.750617    23.529526    4.949462    14.290093    13.389838    -0.044493    -0.456450    -20.209190    1.083506    
5.367271    86.730270    -1.939201    4.710552    -0.773948    -5.726982    -4.249061    -10.492080    0.625623    -2.919626    11.734020    1.315953    1.101802    16.669903    -1.519913    4.958208    -19.611010    -0.048032    10.276326    -7.087337    5.198994    -51.620667    49.043259    -44.934860    6.524245    -21.527338    -117.729752    -1.313513    -10.816450    -27.697662    -1.897673    -9.377131    21.254423    -124.037422    -40.906670    152.977417    -61.143276    34.090565    -117.021721    -93.497383    -65.811378    -68.601227    -1.901556    -5.477555    -2.994050    1.961718    26.140594    -5.939828    1.214110    9.059501    -8.120366    -0.125829    -19.288294    0.203085    -8.889866    -10.587414    -2.685447    -3.363529    26.463608    6.139025    14.444694    6.793933    -0.987240    -1.831922    -15.970852    4.044824    
5.359059    85.132858    -1.878857    4.598968    -1.172003    -5.611162    -4.511068    -9.933014    0.622619    -2.257962    11.361140    1.239468    1.095101    17.732384    -1.578978    4.433702    -20.760023    -0.217475    9.890659    -6.792109    4.962938    -52.279079    48.678371    -44.564087    6.191782    -19.833649    -118.133774    1.807572    -10.249392    -27.113558    -2.082792    -9.084570    21.139679    -123.818436    -40.463467    153.438110    -62.154449    34.257069    -116.731850    -98.304985    -65.929543    -70.888062    -1.887328    -5.628603    -3.539683    2.171662    28.954388    -7.239569    1.420435    3.626291    -6.919998    -0.309393    -18.150093    0.494225    -8.788654    -10.861919    -2.639659    -4.226691    29.525745    8.543936    15.873357    1.819049    -1.421574    -2.006277    -15.601837    4.403685    
5.368199    83.449509    -1.816451    4.515341    -1.671932    -5.500105    -4.830562    -9.168766    0.621855    -1.436125    10.840354    1.145668    0.339529    18.941208    -1.580745    4.978920    -22.163460    0.006322    9.381470    -6.850489    4.774455    -53.107052    48.464935    -43.976822    6.663868    -18.645845    -118.066559    4.740380    -8.883715    -25.913422    -2.470028    -9.005846    20.973572    -123.239723    -40.048016    154.001801    -60.698051    33.687801    -117.678909    -95.103439    -65.855804    -69.133446    -1.852076    -5.668681    -4.038847    2.440276    31.951498    -9.621268    0.221370    -1.138915    -5.199495    -0.804087    -15.929898    1.259928    -8.738225    -11.012619    -2.335974    -4.721742    32.215370    10.093581    14.179550    -2.663908    -1.081520    -1.287707    -15.724150    2.832585    
5.375019    81.714127    -1.756761    4.453933    -2.292004    -5.392904    -5.658122    -8.056868    0.562398    0.271684    10.156541    0.937039    -0.857446    19.765564    -1.566626    5.561612    -23.366255    0.232349    8.361664    -7.021080    4.957343    -53.429375    48.615932    -43.863026    7.114458    -18.256699    -117.934425    6.484925    -8.115555    -25.257851    -3.275549    -9.166358    20.628481    -122.505463    -40.127571    154.558914    -59.215317    33.412575    -118.502541    -91.104927    -64.549927    -67.631165    -1.849737    -5.572852    -4.412456    2.213586    34.615700    -11.387127    0.771717    -6.267705    -3.150757    -1.479416    -13.253177    2.267916    -8.706094    -11.030960    -1.811791    -4.745138    34.854965    10.054420    12.693124    -7.303771    -0.968996    -1.176005    -13.556235    2.502318    
5.372613    80.001060    -1.679995    4.349036    -3.114349    -5.292348    -5.917421    -6.803908    0.383651    1.147221    9.857129    0.636839    -2.267083    19.830709    -1.400768    6.606665    -24.040844    0.749606    7.365514    -7.262037    5.657817    -53.203781    48.616592    -43.933975    6.668375    -17.444729    -118.359550    7.318933    -8.103507    -25.204321    -3.926203    -9.504889    20.406631    -121.580498    -40.456066    154.614151    -59.002434    33.174152    -118.349419    -89.547287    -63.267845    -67.043121    -1.784011    -5.226729    -4.911128    1.612343    37.034534    -12.028148    3.600107    -9.453074    -1.012244    -1.762323    -13.098239    2.698225    -8.572164    -10.776364    -1.200328    -4.778391    37.468090    10.803065    11.784824    -11.472866    -2.445191    -1.237433    -12.344981    2.586718    
5.350844    78.515564    -1.654761    4.271812    -3.843134    -5.331389    -5.533453    -3.000739    0.897738    -0.897132    4.360754    1.077007    1.411326    23.337303    -1.715718    4.701682    -25.688183    0.001902    8.124760    -4.820457    4.884147    -54.261158    48.853191    -43.563335    6.500754    -15.752824    -117.775146    7.725702    -6.890248    -25.758184    0.399223    -6.419538    19.023586    -123.812325    -41.227921    155.223297    -58.900688    33.525391    -118.367256    -89.315643    -62.096268    -67.380211    -1.836962    -4.962014    -4.696423    1.656162    39.271767    -12.361501    5.970104    -12.474405    0.527326    -1.991389    -13.349888    3.054907    -8.222995    -10.587555    -1.043722    -5.451171    39.796307    12.804991    10.558373    -15.661674    -4.652588    -1.056857    -10.941847    2.165935    
